<svg width="60" height="36" viewBox="0 0 60 36" fill="none" xmlns="http://www.w3.org/2000/svg">
<path d="M58.5555 2.63334C58.9666 1.24445 58.5555 0.222229 56.5778 0.222229H50.0333C48.3666 0.222229 47.6 1.10001 47.1889 2.07778C47.1889 2.07778 43.8555 10.2 39.1444 15.4667C37.6222 16.9889 36.9222 17.4778 36.0889 17.4778C35.6778 17.4778 35.0444 16.9889 35.0444 15.6V2.63334C35.0444 0.966673 34.5778 0.222229 33.2 0.222229H22.9111C21.8666 0.222229 21.2444 1.00001 21.2444 1.72223C21.2444 3.30001 23.6 3.66667 23.8444 8.11112V17.7556C23.8444 19.8667 23.4666 20.2556 22.6333 20.2556C20.4111 20.2556 15.0111 12.1 11.8111 2.76667C11.1666 0.955563 10.5333 0.222229 8.85554 0.222229H2.31109C0.444428 0.222229 0.0666504 1.10001 0.0666504 2.07778C0.0666504 3.81112 2.28887 12.4222 10.4111 23.8C15.8222 31.5667 23.4444 35.7778 30.3778 35.7778C34.5444 35.7778 35.0555 34.8444 35.0555 33.2333C35.0555 25.8111 34.6778 25.1111 36.7666 25.1111C37.7333 25.1111 39.4 25.6 43.2889 29.3444C47.7333 33.7889 48.4666 35.7778 50.9555 35.7778H57.5C59.3666 35.7778 60.3111 34.8444 59.7667 33C58.5222 29.1222 50.1111 21.1444 49.7333 20.6111C48.7666 19.3667 49.0444 18.8111 49.7333 17.7C49.7444 17.6889 57.7333 6.44445 58.5555 2.63334Z" fill="white" fill-opacity="0.5"/>
</svg>
