<svg width="56" height="56" viewBox="0 0 56 56" fill="none" xmlns="http://www.w3.org/2000/svg">
<path d="M47.6125 8.1375C42.375 2.8875 35.4 0 27.9875 0C12.6875 0 0.2375 12.45 0.2375 27.75C0.2375 32.6375 1.5125 37.4125 3.9375 41.625L0 56L14.7125 52.1375C18.7625 54.35 23.325 55.5125 27.975 55.5125H27.9875C43.275 55.5125 56 43.0625 56 27.7625C56 20.35 52.85 13.3875 47.6125 8.1375ZM27.9875 50.8375C23.8375 50.8375 19.775 49.725 16.2375 47.625L15.4 47.125L6.675 49.4125L9 40.9L8.45 40.025C6.1375 36.35 4.925 32.1125 4.925 27.75C4.925 15.0375 15.275 4.6875 28 4.6875C34.1625 4.6875 39.95 7.0875 44.3 11.45C48.65 15.8125 51.325 21.6 51.3125 27.7625C51.3125 40.4875 40.7 50.8375 27.9875 50.8375ZM40.6375 33.5625C39.95 33.2125 36.5375 31.5375 35.9 31.3125C35.2625 31.075 34.8 30.9625 34.3375 31.6625C33.875 32.3625 32.55 33.9125 32.1375 34.3875C31.7375 34.85 31.325 34.9125 30.6375 34.5625C26.5625 32.525 23.8875 30.925 21.2 26.3125C20.4875 25.0875 21.9125 25.175 23.2375 22.525C23.4625 22.0625 23.35 21.6625 23.175 21.3125C23 20.9625 21.6125 17.55 21.0375 16.1625C20.475 14.8125 19.9 15 19.475 14.975C19.075 14.95 18.6125 14.95 18.15 14.95C17.6875 14.95 16.9375 15.125 16.3 15.8125C15.6625 16.5125 13.875 18.1875 13.875 21.6C13.875 25.0125 16.3625 28.3125 16.7 28.775C17.05 29.2375 21.5875 36.2375 28.55 39.25C32.95 41.15 34.675 41.3125 36.875 40.9875C38.2125 40.7875 40.975 39.3125 41.55 37.6875C42.125 36.0625 42.125 34.675 41.95 34.3875C41.7875 34.075 41.325 33.9 40.6375 33.5625Z" fill="white" fill-opacity="0.5"/>
</svg>
