<?xml version="1.0" encoding="UTF-8"?>
<svg id="_Слой_1" xmlns="http://www.w3.org/2000/svg" viewBox="0 0 390 844">
  <defs>
    <style>
      svg {
        background: #091019;
      }
      .cls-1 {
        fill: #fff;
	opacity: .05;
      }
    </style>
  </defs>
  <g>
    <path class="cls-1" d="M347.83,217.02c-96.37-4.44-171.85-79.57-171.85-171.03S251.47-120.58,347.83-125.02c6.39-.29,11.4-5.33,11.4-11.46,0-3.08-1.26-5.98-3.54-8.16-2.39-2.28-5.65-3.51-9.05-3.35-109.15,5.05-194.64,90.25-194.64,193.97s85.5,188.95,194.64,194c.19,0,.38,.01,.57,.01,3.16,0,6.23-1.21,8.48-3.36,2.28-2.18,3.54-5.08,3.54-8.16,0-6.13-5.01-11.16-11.4-11.46Z"/>
    <path class="cls-1" d="M362.94-99.24c-3.39-.24-6.72,.94-9.18,3.22-2.45,2.29-3.8,5.39-3.8,8.74,0,6.25,4.94,11.5,11.24,11.95,63.31,4.51,112.9,57.8,112.9,121.32s-49.59,116.81-112.9,121.33c-6.31,.45-11.24,5.7-11.24,11.95,0,3.87,1.81,7.42,5.03,9.75,2.25,1.63,5.07,2.41,7.85,2.22,.03,0,.07,0,.1,0,75.79-5.41,135.15-69.21,135.15-145.24s-59.36-139.83-135.15-145.24Z"/>
    <g>
      <path class="cls-1" d="M301.95-21.6l15.58,61.44c-18.85,7.94-37.72,15.85-56.57,23.77-1.37-5.63-2.09-11.54-2.09-17.61,0-29.92,17.64-55.75,43.08-67.59Z"/>
      <path class="cls-1" d="M465.35,.87l-60.01,25.22h-.03c-.85-3.05-1.87-6.02-3.08-8.9l-69.32,17.91-30.36-56.98c9.42-4.31,19.89-6.7,30.91-6.7,30.97,0,57.53,18.88,68.8,45.77L465.35,.87Z"/>
      <path class="cls-1" d="M326.65,58.74l33.11,57.07c-8.16,3.1-17.03,4.78-26.29,4.78-31.02,0-57.59-18.9-68.85-45.83,20.69-5.33,41.35-10.66,62.04-16.02Z"/>
      <path class="cls-1" d="M408.04,45.99c0,31.9-20,59.1-48.14,69.76l-18.38-62.84,63.8-26.82h.03c1.76,6.32,2.69,13,2.69,19.89Z"/>
      <path class="cls-1" d="M186.04,95.06c26.18-6.76,52.37-13.52,78.55-20.3-1.48-3.57-2.72-7.31-3.65-11.16-24.95,10.5-49.92,20.96-74.9,31.46Z"/>
    </g>
    <path class="cls-1" d="M360.04,116.25l-.27-.44c.06,0,.11-.03,.14-.06l.14,.49Z"/>
  </g>
</svg>