<svg width="40" height="64" viewBox="0 0 40 64" fill="none" xmlns="http://www.w3.org/2000/svg">
<path d="M34.3875 41.75C30.9625 43.925 26.25 44.7875 23.1375 45.1125L25.75 47.6875L35.2875 57.225C38.775 60.8 33.1 66.3875 29.575 62.9375C27.1875 60.5125 23.6875 57.0125 20.0375 53.3625L10.5 62.925C6.97503 66.3625 1.30003 60.725 4.82503 57.2125C7.25003 54.7875 10.7125 51.2875 14.3625 47.675L16.9375 45.1C13.8625 44.775 9.07503 43.9625 5.61253 41.7375C1.53753 39.1125 -0.249972 37.575 1.32503 34.3625C2.25003 32.5375 4.78753 31 8.15003 33.65C8.15003 33.65 12.6875 37.2625 20.0125 37.2625C27.3375 37.2625 31.875 33.65 31.875 33.65C35.2375 31.0125 37.7625 32.5375 38.7 34.3625C40.25 37.575 38.4625 39.1125 34.3875 41.75ZM3.78753 16.2125C3.78753 7.25 11.075 0 20 0C28.925 0 36.2125 7.25 36.2125 16.2125C36.2125 25.1375 28.925 32.3875 20 32.3875C11.075 32.3875 3.78753 25.1375 3.78753 16.2125ZM12.0375 16.2125C12.0375 20.6 15.6125 24.175 20 24.175C24.3875 24.175 27.9625 20.6 27.9625 16.2125C27.9625 11.7875 24.3875 8.2125 20 8.2125C15.6125 8.2125 12.0375 11.7875 12.0375 16.2125Z" fill="white" fill-opacity="0.5"/>
</svg>
