<svg width="54" height="54" viewBox="0 0 54 54" fill="none" xmlns="http://www.w3.org/2000/svg">
<path d="M53.5365 18.7074C53.5365 28.7833 45.3685 36.9512 35.2926 36.9512C34.1296 36.9512 32.9925 36.8412 31.8898 36.6331L29.4008 39.4333C29.1674 39.6959 28.881 39.9061 28.5605 40.05C28.24 40.1939 27.8927 40.2683 27.5414 40.2683H23.6829V44.4147C23.6829 45.7887 22.5691 46.9025 21.1951 46.9025H17.0487V51.0488C17.0487 52.4228 15.9349 53.5366 14.5609 53.5366H2.95118C1.57719 53.5366 0.463379 52.4228 0.463379 51.0488V42.9573C0.463379 42.2975 0.725531 41.6647 1.19199 41.1981L17.9642 24.426C17.3709 22.6271 17.0487 20.7049 17.0487 18.7073C17.0487 8.63153 25.2167 0.463544 35.2925 0.46344C45.3981 0.463336 53.5365 8.60178 53.5365 18.7074ZM35.2926 13.7317C35.2926 16.4797 37.5203 18.7073 40.2683 18.7073C43.0162 18.7073 45.2439 16.4797 45.2439 13.7317C45.2439 10.9837 43.0162 8.75612 40.2683 8.75612C37.5203 8.75612 35.2926 10.9837 35.2926 13.7317Z" fill="white"/>
</svg>
