<svg width="24" height="24" viewBox="0 0 24 24" fill="none" xmlns="http://www.w3.org/2000/svg">
<path d="M20.3461 3.86521L16.69 3.02147C16.2927 2.93007 15.8849 3.13749 15.7232 3.51014L14.0357 7.44755C13.8881 7.79208 13.9865 8.19636 14.2783 8.43191L16.4087 10.1756C15.1431 12.872 12.9318 15.115 10.1792 16.4052L8.43544 14.2748C8.19638 13.983 7.79561 13.8845 7.45108 14.0322L3.51367 15.7196C3.1375 15.8849 2.93009 16.2927 3.02149 16.6899L3.86522 20.3461C3.95311 20.7258 4.2906 21 4.68786 21C13.6912 21 21 13.7052 21 4.68784C21 4.2941 20.7293 3.95309 20.3461 3.86521Z" fill="white" fill-opacity="0.5"/>
</svg>
